<?xml version="1.0" encoding="UTF-8"?>
<svg width="742px" height="376px" viewBox="0 0 742 376" version="1.1" xmlns="http://www.w3.org/2000/svg" xmlns:xlink="http://www.w3.org/1999/xlink">
    <!-- Generator: Sketch 60.1 (88133) - https://sketch.com -->
    <title>流程图</title>
    <desc>Created with Sketch.</desc>
    <g id="定稿" stroke="none" stroke-width="1" fill="none" fill-rule="evenodd">
        <g id="karmada" transform="translate(-401.000000, -1200.000000)">
            <g id="流程图" transform="translate(401.000000, 1201.000000)">
                <path d="M3,0 L739,0 C740.104569,-2.02906125e-16 741,0.8954305 741,2 L741,161 C741,162.104569 740.104569,163 739,163 L3,163 C1.8954305,163 1,162.104569 1,161 L1,2 C1,0.8954305 1.8954305,2.02906125e-16 3,0 Z" id="矩形备份-15" stroke="#E6D2A1" stroke-dasharray="3"></path>
                <g id="编组-17" transform="translate(121.000000, 91.000000)" stroke-linecap="square">
                    <line x1="251.471136" y1="13.3757764" x2="251.5" y2="83.5" id="直线-4备份-4" stroke="#555F6A"></line>
                    <line x1="499.5" y1="25.4275362" x2="500" y2="83.9472431" id="直线-4备份-5" stroke="#555F6A"></line>
                    <line x1="85.5" y1="0.5" x2="141.5" y2="0.5" id="直线-3" stroke="#465669"></line>
                    <line x1="373" y1="0.5" x2="429" y2="0.5" id="直线-3备份" stroke="#465669"></line>
                    <line x1="1.5" y1="25.375" x2="499.5" y2="25.375" id="直线-5" stroke="#555F6A"></line>
                    <line x1="0.5" y1="25.4286325" x2="0.5" y2="83.4326923" id="直线-4备份-3" stroke="#555F6A"></line>
                </g>
                <g id="编组-10">
                    <rect id="矩形" fill="#555F6A" x="228" y="80" width="288" height="24" rx="12"></rect>
                    <g id="编组-12" transform="translate(0.000000, 335.000000)">
                        <rect id="矩形备份" fill="#555F6A" x="34" y="8" width="676" height="24"></rect>
                        <text id="Karmada-Cluster-Life" font-family="PingFangSC-Regular, PingFang SC" font-size="12" font-weight="normal" letter-spacing="0.435" fill="#FFFFFF">
                            <tspan x="251.234" y="25">Karmada Cluster Lifecycle Management</tspan>
                        </text>
                        <polygon id="三角形" fill="#555F6A" transform="translate(722.000000, 20.000000) rotate(-270.000000) translate(-722.000000, -20.000000) " points="722 7.10542736e-15 742 40 702 40"></polygon>
                        <polygon id="三角形备份" fill="#555F6A" transform="translate(20.000000, 20.000000) scale(-1, 1) rotate(-270.000000) translate(-20.000000, -20.000000) " points="20 7.10542736e-15 40 40 0 40"></polygon>
                    </g>
                    <rect id="矩形备份-2" fill="#555F6A" x="521" y="80" width="200" height="24" rx="12"></rect>
                    <rect id="矩形备份-8" fill="#555F6A" x="21" y="80" width="200" height="24" rx="12"></rect>
                    <rect id="矩形备份-14" fill="#555F6A" x="21" y="133" width="200" height="24" rx="12"></rect>
                    <rect id="矩形备份-9" stroke="#555F6A" fill="#F7F8F8" x="227" y="46" width="140" height="24" rx="12"></rect>
                    <rect id="矩形备份-10" stroke="#555F6A" fill="#F7F8F8" x="373" y="46" width="140" height="24" rx="12"></rect>
                    <path d="M1,0 L741,0 L741,30 L1,30 L1,0 Z" id="矩形备份-16" stroke="#555F6A" fill="#E6D2A2" opacity="0.1" stroke-dasharray="3"></path>
                    <rect id="矩形备份-19" stroke="#555F6A" fill="#F7F8F8" x="521" y="129" width="200" height="24" rx="12"></rect>
                    <text id="Karmada-API-server" font-family="PingFangSC-Regular, PingFang SC" font-size="12" font-weight="normal" letter-spacing="0.435" fill="#FFFFFF">
                        <tspan x="310.241" y="96">Karmada API-server</tspan>
                    </text>
                    <text id="Karmada-Scheduler" font-family="PingFangSC-Regular, PingFang SC" font-size="12" font-weight="normal" letter-spacing="0.435" fill="#FFFFFF">
                        <tspan x="563.2205" y="96">Karmada Scheduler</tspan>
                    </text>
                    <text id="Workload-Controllers" font-family="PingFangSC-Regular, PingFang SC" font-size="12" font-weight="normal" letter-spacing="0.435" fill="#FFFFFF">
                        <tspan x="57.952" y="96">Workload Controllers</tspan>
                    </text>
                    <text id="Execution-Controller" font-family="PingFangSC-Regular, PingFang SC" font-size="12" font-weight="normal" letter-spacing="0.435" fill="#FFFFFF">
                        <tspan x="59.854" y="149">Execution Controller</tspan>
                    </text>
                    <text id="Kubernetes-APIs" font-family="PingFangSC-Regular, PingFang SC" font-size="12" font-weight="normal" letter-spacing="0.435" fill="#555F6A">
                        <tspan x="248.2835" y="62">Kubernetes APIs</tspan>
                    </text>
                    <text id="Karmada-Policy-APIs" font-family="PingFangSC-Regular, PingFang SC" font-size="12" font-weight="normal" letter-spacing="0.435" fill="#555F6A">
                        <tspan x="381.0155" y="62">Karmada Policy APIs</tspan>
                    </text>
                    <g id="编组-20" transform="translate(279.000000, 0.000000)">
                        <text id="Karmada-control-plan" font-family="PingFangSC-Regular, PingFang SC" font-size="12" font-weight="normal" letter-spacing="0.435" fill="#9F6000">
                            <tspan x="49.0365" y="19">Karmada control plane</tspan>
                        </text>
                        <g id="编组-21备份">
                            <path d="M5.68434189e-13,20.6244444 L5.09259259,20.6244444 C5.53333333,20.0940741 5.94074074,19.5359259 6.31111111,18.9511111 C6.33333333,18.6285185 6.34444444,18.3044444 6.34444444,17.9777778 C6.34444444,13.8522222 4.68518519,10.1151852 1.9962963,7.39592593 C2.63703704,8.92666667 2.9962963,10.6085185 2.9962963,12.3737037 C2.9962963,15.5137037 1.86666667,18.3907407 5.68434189e-13,20.6244444" id="Fill-4" fill="#3F7BB2"></path>
                            <path d="M2.96296296,22.6188889 L5.76666667,22.6188889 C5.88888889,22.1774074 5.99259259,21.7340741 6.07777778,21.292963 L-1.11910481e-13,21.292963 C1.16296296,21.3274074 2.21111111,21.8303704 2.96296296,22.6188889" id="Fill-5" fill="#5697C5"></path>
                            <path d="M5.11481481,24.5074074 C5.3,24.0533333 5.47407407,23.5911111 5.61851852,23.12 L3.37037037,23.12 C3.65925926,23.5344444 3.87777778,24.0033333 4.0037037,24.5074074 L5.11481481,24.5074074" id="Fill-6" fill="#5697C5"></path>
                            <path d="M4.90740741,25.0088889 L4.1,25.0088889 C4.12222222,25.1866667 4.13703704,25.367037 4.13703704,25.5514815 C4.13703704,25.9796296 4.07037037,26.3925926 3.95555556,26.7818519 C4.30740741,26.2307407 4.62592593,25.6337037 4.90740741,25.0088889" id="Fill-7" fill="#5697C5"></path>
                            <path d="M31.6592593,20.6244444 L37.7703704,20.6244444 C37.9222222,19.7651852 38.0037037,18.8811111 38.0037037,17.9777778 C38.0037037,13.8522222 36.3444444,10.1151852 33.6555556,7.39592593 C34.3,8.92666667 34.6555556,10.6085185 34.6555556,12.3737037 C34.6555556,15.5137037 33.5296296,18.3907407 31.6592593,20.6244444" id="Fill-8" fill="#3F7BB2"></path>
                            <path d="M34.6222222,22.6188889 L37.4703704,22.6188889 C37.5888889,22.1833333 37.6925926,21.7422222 37.7703704,21.292963 L31.6592593,21.292963 C32.8259259,21.3274074 33.8703704,21.8303704 34.6222222,22.6188889" id="Fill-9" fill="#5697C5"></path>
                            <path d="M36.8037037,24.5074074 C36.9962963,24.0540741 37.1740741,23.5940741 37.3185185,23.12 L35.0296296,23.12 C35.3185185,23.5344444 35.537037,24.0033333 35.6666667,24.5074074 L36.8037037,24.5074074" id="Fill-10" fill="#5697C5"></path>
                            <path d="M36.5888889,25.0088889 L35.7592593,25.0088889 C35.7814815,25.1866667 35.7962963,25.367037 35.7962963,25.5514815 C35.7962963,25.9796296 35.7333333,26.3925926 35.6148148,26.7818519 C35.9777778,26.2162963 36.3037037,25.6244444 36.5888889,25.0088889" id="Fill-11" fill="#5697C5"></path>
                            <path d="M6.23333333,20.6244444 L13.0962963,20.6244444 C13.4185185,20.2388889 13.7222222,19.8403704 14.0148148,19.4314815 C14.0888889,18.7522222 14.1259259,18.062963 14.1259259,17.3640741 C14.1259259,12.207037 12.0518519,7.5362963 8.69259259,4.13703704 C9.4962963,6.05037037 9.94074074,8.15185185 9.94074074,10.3581481 C9.94074074,14.2622222 8.54814815,17.8392593 6.23333333,20.6244444" id="Fill-12" fill="#3E6EA8"></path>
                            <path d="M13.5296296,22.6188889 C13.6407407,22.1788889 13.7407407,21.7377778 13.8222222,21.292963 L6.23333333,21.292963 C6.21851852,21.3096296 6.20740741,21.2777778 6.1962963,21.292963 C7.47037037,21.3311111 8.63333333,21.8266667 9.52962963,22.6188889 L13.5296296,22.6188889" id="Fill-13" fill="#548CBD"></path>
                            <path d="M12.9555556,24.5074074 C13.1185185,24.0518519 13.2666667,23.5881481 13.4,23.12 L10.0259259,23.12 C10.3851852,23.5325926 10.6814815,24.0003704 10.9074074,24.5074074 L12.9555556,24.5074074" id="Fill-14" fill="#548CBD"></path>
                            <path d="M12.1481481,26.3962963 C12.3703704,25.9440741 12.5777778,25.4825926 12.762963,25.0088889 L11.1,25.0088889 C11.2407407,25.45 11.3296296,25.9151852 11.3555556,26.3962963 L12.1481481,26.3962963" id="Fill-15" fill="#548CBD"></path>
                            <path d="M11.3592593,26.8977778 C11.337037,27.3496296 11.262963,27.7866667 11.1407407,28.2018519 C11.4074074,27.7837037 11.6592593,27.3459259 11.8925926,26.8977778 L11.3592593,26.8977778" id="Fill-16" fill="#548CBD"></path>
                            <path d="M23.9518519,20.6244444 L30.5555556,20.6244444 C31.0111111,20.0811111 31.4222222,19.4988889 31.7814815,18.8855556 C31.8222222,18.3825926 31.8444444,17.8762963 31.8444444,17.3640741 C31.8444444,12.207037 29.7703704,7.5362963 26.4111111,4.13703704 C27.2111111,6.05037037 27.6592593,8.15185185 27.6592593,10.3581481 C27.6592593,14.2622222 26.2666667,17.8392593 23.9518519,20.6244444" id="Fill-17" fill="#3E6EA8"></path>
                            <path d="M31.2407407,22.6188889 C31.3518519,22.1788889 31.4555556,21.737037 31.5333333,21.292963 L23.9518519,21.292963 C23.937037,21.3096296 23.9259259,21.2777778 23.9111111,21.292963 C25.1888889,21.3311111 26.3481481,21.8266667 27.2481481,22.6188889 L31.2407407,22.6188889" id="Fill-18" fill="#548CBD"></path>
                            <path d="M30.662963,24.5074074 C30.8296296,24.0511111 30.9777778,23.5874074 31.1111111,23.12 L27.7444444,23.12 C28.1037037,23.5325926 28.4,24.0003704 28.6222222,24.5074074 L30.662963,24.5074074" id="Fill-19" fill="#548CBD"></path>
                            <path d="M29.862963,26.3962963 C30.0814815,25.9440741 30.2888889,25.4825926 30.4740741,25.0088889 L28.8148148,25.0088889 C28.9592593,25.45 29.0481481,25.9151852 29.0740741,26.3962963 L29.862963,26.3962963" id="Fill-20" fill="#548CBD"></path>
                            <path d="M29.0777778,26.8977778 C29.0555556,27.3496296 28.9814815,27.7866667 28.8592593,28.2018519 C29.1259259,27.7851852 29.3740741,27.3466667 29.6111111,26.8977778 L29.0777778,26.8977778" id="Fill-21" fill="#548CBD"></path>
                            <path d="M14.1,20.6244444 L22.9481481,20.6244444 C23.2444444,20.2707407 23.5222222,19.9040741 23.7851852,19.5255556 C23.9111111,18.5455556 23.9777778,17.5485185 23.9777778,16.5344444 C23.9777778,10.0885185 21.3814815,4.24925926 17.1814815,-2.27373675e-13 C18.1851852,2.39222222 18.7444444,5.01962963 18.7444444,7.77740741 C18.7444444,12.6644444 16.9962963,17.1407407 14.1,20.6244444" id="Fill-22" fill="#3C609D"></path>
                            <path d="M23.3185185,22.6188889 C23.4222222,22.1788889 23.5185185,21.7377778 23.6,21.292963 L14.1,21.292963 C14.0851852,21.3088889 14.0740741,21.2777778 14.062963,21.292963 C15.4703704,21.3348148 16.7703704,21.8251852 17.8259259,22.6188889 L23.3185185,22.6188889" id="Fill-23" fill="#5276AD"></path>
                            <path d="M19.5444444,24.5074074 L22.7777778,24.5074074 C22.9259259,24.0488889 23.0666667,23.5874074 23.1888889,23.12 L18.4185185,23.12 C18.8518519,23.5296296 19.2296296,23.9966667 19.5444444,24.5074074" id="Fill-24" fill="#5276AD"></path>
                            <path d="M22.0777778,26.3962963 C22.2703704,25.9407407 22.4481481,25.4781481 22.6111111,25.0088889 L19.8222222,25.0088889 C20.0407407,25.4466667 20.2148148,25.9114815 20.3333333,26.3962963 L22.0777778,26.3962963" id="Fill-25" fill="#5276AD"></path>
                            <path d="M20.5148148,28.2859259 L21.1851852,28.2859259 C21.4185185,27.8322222 21.6444444,27.37 21.8555556,26.8977778 L20.437037,26.8977778 C20.4962963,27.2548148 20.5296296,27.6196296 20.5296296,27.992963 C20.5296296,28.0918519 20.5222222,28.1881481 20.5148148,28.2859259" id="Fill-26" fill="#5276AD"></path>
                            <path d="M20.4740741,28.7877778 C20.4296296,29.1740741 20.3518519,29.5518519 20.2444444,29.9155556 C20.4777778,29.5496296 20.7,29.1711111 20.9111111,28.7877778 L20.4740741,28.7877778" id="Fill-27" fill="#5276AD"></path>
                        </g>
                    </g>
                    <text id="KubeEdge-Controller" font-family="PingFangSC-Regular, PingFang SC" font-size="12" font-weight="normal" letter-spacing="0.435" fill="#555F6A">
                        <tspan x="559.3955" y="146">KubeEdge Controller</tspan>
                    </text>
                    <g id="编组-19" transform="translate(1.000000, 175.000000)">
                        <g id="编组-17备份" transform="translate(250.000000, 0.000000)">
                            <g id="编组-16" transform="translate(20.000000, 54.000000)">
                                <rect id="矩形备份-17" fill="#DFE1E3" x="40" y="0" width="120" height="24" rx="12"></rect>
                                <rect id="矩形备份-17" fill="#A6ABB0" x="20" y="12" width="160" height="24" rx="12"></rect>
                                <rect id="矩形备份-4" fill="#555F6A" x="0" y="24" width="200" height="24" rx="12"></rect>
                                <g id="编组-22" transform="translate(14.000000, 28.000000)">
                                    <text id="Cluster-(Karmada-Age" font-family="PingFangSC-Regular, PingFang SC" font-size="12" font-weight="normal" letter-spacing="0.435" fill="#FFFFFF">
                                        <tspan x="23.8475" y="13">Cluster (Karmada Agent)</tspan>
                                    </text>
                                    <path d="M14.6019008,3.43401429 L15.9908621,9.40700718 C16.0274137,9.71752974 15.9543105,10.0280523 15.7715524,10.2837768 L11.9153572,15.0512115 C11.7143234,15.325202 11.4036346,15.4713303 11.0746701,15.4347982 L4.91572333,15.4347982 C4.60503463,15.4165322 4.2943459,15.2704039 4.07503623,15.0512115 L0.218841059,10.2837768 C0.0360829912,10.0280523 -0.0370202315,9.71752974 0.0178071856,9.40700718 L1.40676848,3.39748219 C1.47987171,3.08695963 1.68090558,2.84950121 1.95504268,2.72163896 L7.52916365,0.036532067 C7.67537014,0 7.83985239,0 7.98605883,0 C8.13226528,0 8.29674753,0.0182660316 8.44295401,0.0913301655 L14.017075,2.75817105 C14.2912121,2.90429931 14.5105218,3.14175773 14.6019008,3.43401429 Z M13.7246621,9.16954876 C13.7063863,9.16954876 13.7063863,9.16954876 13.7063863,9.15128271 C13.7063863,9.1330167 13.6515589,9.1330167 13.6332831,9.1330167 C13.5601798,9.11475066 13.4870766,9.11475066 13.4139734,9.11475066 C13.3774218,9.11475066 13.3408702,9.11475066 13.3043185,9.09648461 L13.2860427,9.09648461 C13.0850088,9.0782186 12.8656992,9.04168651 12.6646653,8.9868884 C12.6098379,8.9686224 12.5550105,8.91382429 12.5367347,8.85902619 C12.5367347,8.84076014 12.5184589,8.84076014 12.5184589,8.84076014 L12.3722524,8.80422809 C12.4453556,8.27451311 12.408804,7.72653213 12.2991492,7.19681715 C12.1712185,6.66710217 11.9519089,6.15565324 11.659496,5.69900242 L11.7691508,5.58940621 L11.7691508,5.57114016 C11.7691508,5.51634206 11.7874266,5.44327795 11.8239782,5.40674589 C11.9884605,5.27888364 12.1529427,5.15102139 12.3357008,5.05969123 C12.3722524,5.04142523 12.408804,5.02315918 12.4453556,5.00489313 C12.5184589,4.96836108 12.5732863,4.93182902 12.6463895,4.89529693 C12.6646653,4.87703092 12.6829411,4.87703092 12.7012169,4.85876487 C12.7194927,4.84049883 12.7194927,4.84049883 12.7194927,4.84049883 C12.883975,4.71263661 12.9205266,4.4934442 12.792596,4.3290499 C12.7377685,4.25598578 12.6281137,4.20118768 12.5367347,4.20118768 C12.4453556,4.20118768 12.3539766,4.23771974 12.2808734,4.29251784 L12.2625976,4.31078389 C12.2443217,4.3290499 12.2260459,4.34731594 12.2077701,4.34731594 C12.1529427,4.40211404 12.0981153,4.45691215 12.0615637,4.51171025 C12.0432879,4.5482423 12.0067363,4.56650835 11.9884605,4.58477436 C11.842254,4.73090266 11.6960476,4.87703092 11.5315653,4.98662712 C11.4950137,5.00489313 11.4584621,5.02315918 11.4219105,5.02315918 C11.4036346,5.02315918 11.367083,5.02315918 11.3488072,5.00489313 L11.2026008,5.11448934 C11.0563943,4.96836108 10.8919121,4.82223282 10.7457056,4.67610456 C10.0695008,4.14638958 9.22881369,3.81760097 8.36985075,3.72627081 L8.35157495,3.58014255 L8.33329914,3.5618765 C8.27847172,3.52534444 8.26019592,3.47054634 8.24192011,3.41574824 C8.24192011,3.21482188 8.24192011,3.01389551 8.27847172,2.79470311 L8.27847172,2.77643706 C8.27847172,2.739905 8.29674753,2.70337295 8.29674753,2.66684085 C8.31502333,2.59377674 8.31502333,2.52071261 8.33329914,2.44764847 L8.33329914,2.33805227 C8.35157495,2.15539194 8.2053685,1.9727316 8.02261044,1.9727316 C7.91295561,1.9727316 7.80330077,2.00926367 7.73019755,2.08232781 C7.65709433,2.15539194 7.62054272,2.2467221 7.62054272,2.33805227 L7.62054272,2.42938244 C7.62054272,2.50244657 7.63881852,2.5755107 7.65709433,2.64857485 C7.67537014,2.6851069 7.67537014,2.72163896 7.67537014,2.75817105 L7.67537014,2.77643706 C7.71192175,2.97736342 7.71192175,3.17828982 7.71192175,3.39748219 C7.69364594,3.4522803 7.67537014,3.5070784 7.62054272,3.54361049 L7.60226691,3.5618765 L7.58399111,3.70800476 C7.38295721,3.72627081 7.18192334,3.76280286 6.96261368,3.79933496 C6.10365077,3.98199527 5.31779109,4.4386461 4.71468946,5.07795728 L4.60503463,5.00489313 L4.58675882,5.00489313 C4.56848302,5.00489313 4.55020721,5.02315918 4.5136556,5.02315918 C4.47710399,5.02315918 4.42227657,5.00489313 4.40400077,4.98662712 C4.23951848,4.85876487 4.09331203,4.71263661 3.94710559,4.56650835 C3.92882978,4.52997626 3.89227817,4.51171025 3.87400237,4.4934442 C3.81917495,4.4386461 3.78262334,4.383848 3.72779592,4.3290499 C3.70952011,4.31078389 3.69124431,4.31078389 3.6729685,4.29251784 C3.6546927,4.27425179 3.6546927,4.27425179 3.6546927,4.27425179 C3.58158947,4.21945369 3.49021041,4.18292164 3.39883138,4.18292164 C3.28917655,4.18292164 3.19779752,4.21945369 3.12469429,4.31078389 C3.01503946,4.47517819 3.05159107,4.69437057 3.19779752,4.82223282 C3.21607332,4.82223282 3.21607332,4.84049883 3.21607332,4.84049883 C3.21607332,4.84049883 3.25262493,4.87703092 3.27090074,4.87703092 C3.32572816,4.91356297 3.39883138,4.95009503 3.4719346,4.98662712 C3.50848625,5.00489313 3.54503786,5.02315918 3.58158947,5.04142523 C3.76434753,5.15102139 3.92882978,5.2606176 4.09331203,5.38847985 C4.12986364,5.4250119 4.16641526,5.49807605 4.14813945,5.55287416 L4.14813945,5.57114016 L4.25779428,5.68073637 C4.23951848,5.71726846 4.22124267,5.73553447 4.20296687,5.77206653 C3.63641689,6.66710217 3.41710719,7.72653213 3.58158947,8.76769603 L3.43538299,8.80422809 C3.43538299,8.82249413 3.41710719,8.82249413 3.41710719,8.82249413 C3.39883138,8.8772922 3.34400396,8.91382429 3.28917655,8.95035635 C3.08814268,9.00515445 2.88710882,9.04168651 2.66779913,9.05995255 L2.64952333,9.05995255 C2.61297171,9.05995255 2.5764201,9.05995255 2.53986849,9.0782186 C2.46676526,9.0782186 2.39366203,9.09648461 2.32055881,9.09648461 C2.302283,9.09648461 2.2840072,9.11475066 2.24745558,9.11475066 C2.22917977,9.11475066 2.22917977,9.11475066 2.21090397,9.1330167 C2.0098701,9.16954876 1.88193945,9.35220907 1.91849107,9.55313544 C1.95504268,9.71752974 2.11952494,9.82712595 2.2840072,9.8088599 C2.32055881,9.8088599 2.33883462,9.8088599 2.37538623,9.79059389 C2.39366203,9.79059389 2.39366203,9.79059389 2.39366203,9.77232785 C2.39366203,9.75406184 2.43021365,9.75406184 2.46676526,9.75406184 C2.53986849,9.73579579 2.61297171,9.69926373 2.66779913,9.68099769 C2.70435075,9.66273164 2.74090236,9.64446563 2.77745397,9.64446563 L2.79572979,9.64446563 C2.97848785,9.57140148 3.17952171,9.51660338 3.38055557,9.48007133 L3.39883138,9.48007133 C3.4536588,9.48007133 3.50848625,9.49833733 3.54503786,9.53486943 C3.56331367,9.53486943 3.56331367,9.55313544 3.56331367,9.55313544 L3.72779592,9.53486943 C4.00193301,10.375107 4.5136556,11.1240143 5.22641206,11.6719953 C5.39089431,11.7998576 5.53710076,11.9094538 5.71985881,12.0007839 L5.64675559,12.1469122 C5.64675559,12.1651782 5.6650314,12.1651782 5.6650314,12.1651782 C5.70158301,12.2199763 5.70158301,12.2930404 5.6833072,12.3478385 C5.61020398,12.5304989 5.50054915,12.7131592 5.39089431,12.8775535 L5.39089431,12.8958196 C5.37261851,12.9323516 5.3543427,12.9506177 5.31779109,12.9871497 C5.28123948,13.0236818 5.24468787,13.0967459 5.18986045,13.1698101 C5.17158464,13.1880761 5.17158464,13.2063421 5.15330884,13.2246081 C5.15330884,13.2246081 5.15330884,13.2428742 5.13503303,13.2428742 C5.04365397,13.4255345 5.11675719,13.6447269 5.28123948,13.7360571 C5.31779109,13.7543231 5.37261851,13.7725892 5.42744592,13.7725892 C5.57365237,13.7725892 5.70158301,13.681259 5.77468623,13.5533968 C5.77468623,13.5533968 5.77468623,13.5351307 5.79296204,13.5351307 C5.79296204,13.5168647 5.81123784,13.4985987 5.82951365,13.4803326 C5.84778945,13.4072685 5.88434107,13.3524704 5.90261687,13.2794062 L5.93916852,13.1698101 C5.99399594,12.9688837 6.08537497,12.7862234 6.17675399,12.603563 C6.21330561,12.5487649 6.26813302,12.5122328 6.32296044,12.4939668 C6.34123625,12.4939668 6.34123625,12.4939668 6.34123625,12.4757008 L6.41433947,12.3295725 C6.92606206,12.5304989 7.45606043,12.6218291 8.00433464,12.6218291 C8.33329914,12.6218291 8.66226368,12.585297 8.99122818,12.5122328 C9.19226208,12.4757008 9.39329594,12.4026366 9.576054,12.3478385 L9.64915722,12.4757008 C9.66743303,12.4757008 9.66743303,12.4757008 9.66743303,12.4939668 C9.72226045,12.5122328 9.77708786,12.5487649 9.81363948,12.603563 C9.9050185,12.7862234 9.97812173,12.9688837 10.051225,13.151544 L10.051225,13.1698101 L10.0877766,13.2794062 C10.1060524,13.3524704 10.1243282,13.4255345 10.1608798,13.4803326 C10.1791556,13.4985987 10.1791556,13.5168647 10.1974314,13.5351307 C10.1974314,13.5351307 10.1974314,13.5533968 10.2157072,13.5533968 C10.2888105,13.681259 10.4167411,13.7725892 10.5629475,13.7725892 C10.617775,13.7725892 10.6543266,13.7543231 10.709154,13.7360571 C10.7822572,13.699525 10.8553605,13.6264609 10.8736363,13.5351307 C10.8919121,13.4438006 10.8919121,13.3342043 10.8553605,13.2428742 C10.8553605,13.2246081 10.8370847,13.2246081 10.8370847,13.2246081 C10.8370847,13.2063421 10.8188089,13.1880761 10.800533,13.1698101 C10.7639814,13.0967459 10.7274298,13.0419478 10.6726024,12.9871497 C10.6543266,12.9506177 10.6360508,12.9323516 10.5994992,12.8958196 L10.5994992,12.8775535 C10.4715685,12.7131592 10.3801895,12.5304989 10.3070863,12.3478385 C10.2888105,12.2930404 10.2888105,12.2199763 10.3253621,12.1651782 C10.3253621,12.1469122 10.3436379,12.1469122 10.3436379,12.1469122 L10.2888105,12.0007839 C11.2391524,11.4345369 11.933633,10.5577673 12.2808734,9.51660338 L12.4270798,9.53486943 C12.4453556,9.53486943 12.4453556,9.51660338 12.4453556,9.51660338 C12.4819073,9.48007133 12.5367347,9.46180528 12.5915621,9.46180528 L12.6098379,9.46180528 C12.8108718,9.49833733 13.0119056,9.55313544 13.1946637,9.62619959 L13.2129395,9.62619959 C13.2494911,9.64446563 13.2860427,9.66273164 13.3225944,9.66273164 C13.3956976,9.69926373 13.450525,9.71752974 13.5236282,9.73579579 C13.541904,9.73579579 13.5601798,9.75406184 13.5967314,9.75406184 C13.6150072,9.75406184 13.6150072,9.75406184 13.6332831,9.77232785 C13.6698347,9.79059389 13.6881105,9.79059389 13.7246621,9.79059389 C13.8891443,9.79059389 14.0353508,9.68099769 14.0901782,9.53486943 C14.0353508,9.35220907 13.9074201,9.20608081 13.7246621,9.16954876 Z M8.46122982,8.60330173 L7.96778303,8.84076014 L7.47433624,8.60330173 L7.32812979,8.07358675 L7.67537014,7.63520193 L8.24192011,7.63520193 L8.58916046,8.07358675 L8.46122982,8.60330173 Z M11.4401863,7.41600956 C11.5315653,7.79959624 11.5498411,8.18318295 11.5132895,8.56676963 L9.77708786,8.07358675 C9.61260561,8.03705469 9.52122658,7.87266039 9.5577782,7.70826608 C9.576054,7.65346798 9.59432981,7.61693592 9.63088142,7.58040387 L11.0015669,6.3383136 C11.2026008,6.66710217 11.3488072,7.03242284 11.4401863,7.41600956 Z M10.4532927,5.66247036 L8.97295238,6.72190028 C8.84502174,6.79496442 8.66226368,6.77669838 8.57088465,6.64883616 C8.53433304,6.61230407 8.51605723,6.57577202 8.51605723,6.52097391 L8.4064024,4.67610456 C9.17398624,4.76743471 9.9050185,5.11448934 10.4532927,5.66247036 Z M7.14537173,4.73090266 L7.51088785,4.65783851 L7.40123301,6.48444186 C7.40123301,6.64883616 7.25502657,6.77669838 7.09054432,6.77669838 C7.0357169,6.77669838 6.99916529,6.75843233 6.94433787,6.74016632 L5.46399753,5.66247036 C5.92089268,5.2058195 6.5057185,4.87703092 7.14537173,4.73090266 Z M4.91572333,6.3383136 L6.26813302,7.54387177 C6.39606366,7.65346798 6.41433947,7.83612833 6.30468463,7.96399054 C6.26813302,8.01878865 6.23158141,8.03705469 6.15847819,8.0553207 L4.40400077,8.56676963 C4.33089754,7.79959624 4.5136556,7.0141568 4.91572333,6.3383136 Z M4.60503463,9.42527322 L6.41433947,9.11475066 C6.56054591,9.11475066 6.70675236,9.20608081 6.72502816,9.35220907 C6.74330397,9.40700718 6.74330397,9.48007133 6.70675236,9.53486943 L6.01227174,11.2153445 C5.37261851,10.7952257 4.86089591,10.1559146 4.60503463,9.42527322 Z M8.75364271,11.6902614 C8.49778143,11.7450595 8.22364431,11.7815915 7.94950722,11.7815915 C7.5657153,11.7815915 7.16364754,11.7085274 6.79813142,11.5989312 L7.69364594,9.97325421 C7.78502497,9.863658 7.93123141,9.82712595 8.05916205,9.9001901 C8.11398947,9.93672215 8.15054108,9.97325421 8.2053685,10.0280523 L9.08260721,11.6171972 C8.99122818,11.6354632 8.88157335,11.6537293 8.75364271,11.6902614 Z M10.9832911,10.1011165 C10.709154,10.5395012 10.3253621,10.923088 9.8867427,11.1970785 L9.17398624,9.49833733 C9.13743463,9.35220907 9.19226208,9.20608081 9.33846853,9.1330167 C9.39329594,9.11475066 9.44812336,9.09648461 9.50295078,9.09648461 L11.3305314,9.40700718 C11.2391524,9.66273164 11.1294976,9.9001901 10.9832911,10.1011165 Z" id="Combined-Shape" fill="#F7F8F8" fill-rule="nonzero"></path>
                                </g>
                            </g>
                            <path d="M2,0 L238,0 C239.104569,-2.02906125e-16 240,0.8954305 240,2 L240,142 C240,143.104569 239.104569,144 238,144 L2,144 C0.8954305,144 1.3527075e-16,143.104569 0,142 L0,2 C-1.3527075e-16,0.8954305 0.8954305,2.02906125e-16 2,0 Z" id="矩形备份-18" stroke="#E6D2A1" stroke-dasharray="3"></path>
                            <path d="M0,0 L240,0 L240,30 L0,30 L0,0 Z" id="矩形备份-16" stroke="#555F6A" fill="#E6D2A2" opacity="0.1" stroke-dasharray="3"></path>
                            <text id="Private-Cloud" font-family="PingFangSC-Regular, PingFang SC" font-size="12" font-weight="normal" letter-spacing="0.435" fill="#9F6000">
                                <tspan x="80.2205" y="20">Private Cloud</tspan>
                            </text>
                        </g>
                        <g id="编组-17备份-3" transform="translate(0.000000, 1.000000)">
                            <g id="编组-16" transform="translate(20.000000, 53.000000)">
                                <rect id="矩形备份-17" fill="#DFE1E3" x="40" y="0" width="120" height="24" rx="12"></rect>
                                <rect id="矩形备份-17" fill="#A6ABB0" x="20" y="12" width="160" height="24" rx="12"></rect>
                                <rect id="矩形备份-4" fill="#555F6A" x="0" y="24" width="200" height="24" rx="12"></rect>
                                <g id="编组-21" transform="translate(66.000000, 27.000000)">
                                    <text id="Cluster" font-family="PingFangSC-Regular, PingFang SC" font-size="12" font-weight="normal" letter-spacing="0.435" fill="#FFFFFF">
                                        <tspan x="24.6595" y="13">Cluster</tspan>
                                    </text>
                                    <g id="provider-k8s" transform="translate(0.000000, 1.000000)" fill="#F7F8F8" fill-rule="nonzero">
                                        <path d="M14.6019008,3.43401429 L15.9908621,9.40700718 C16.0274137,9.71752974 15.9543105,10.0280523 15.7715524,10.2837768 L11.9153572,15.0512115 C11.7143234,15.325202 11.4036346,15.4713303 11.0746701,15.4347982 L4.91572333,15.4347982 C4.60503463,15.4165322 4.2943459,15.2704039 4.07503623,15.0512115 L0.218841059,10.2837768 C0.0360829912,10.0280523 -0.0370202315,9.71752974 0.0178071856,9.40700718 L1.40676848,3.39748219 C1.47987171,3.08695963 1.68090558,2.84950121 1.95504268,2.72163896 L7.52916365,0.036532067 C7.67537014,0 7.83985239,0 7.98605883,0 C8.13226528,0 8.29674753,0.0182660316 8.44295401,0.0913301655 L14.017075,2.75817105 C14.2912121,2.90429931 14.5105218,3.14175773 14.6019008,3.43401429 Z M13.7246621,9.16954876 C13.7063863,9.16954876 13.7063863,9.16954876 13.7063863,9.15128271 C13.7063863,9.1330167 13.6515589,9.1330167 13.6332831,9.1330167 C13.5601798,9.11475066 13.4870766,9.11475066 13.4139734,9.11475066 C13.3774218,9.11475066 13.3408702,9.11475066 13.3043185,9.09648461 L13.2860427,9.09648461 C13.0850088,9.0782186 12.8656992,9.04168651 12.6646653,8.9868884 C12.6098379,8.9686224 12.5550105,8.91382429 12.5367347,8.85902619 C12.5367347,8.84076014 12.5184589,8.84076014 12.5184589,8.84076014 L12.3722524,8.80422809 C12.4453556,8.27451311 12.408804,7.72653213 12.2991492,7.19681715 C12.1712185,6.66710217 11.9519089,6.15565324 11.659496,5.69900242 L11.7691508,5.58940621 L11.7691508,5.57114016 C11.7691508,5.51634206 11.7874266,5.44327795 11.8239782,5.40674589 C11.9884605,5.27888364 12.1529427,5.15102139 12.3357008,5.05969123 C12.3722524,5.04142523 12.408804,5.02315918 12.4453556,5.00489313 C12.5184589,4.96836108 12.5732863,4.93182902 12.6463895,4.89529693 C12.6646653,4.87703092 12.6829411,4.87703092 12.7012169,4.85876487 C12.7194927,4.84049883 12.7194927,4.84049883 12.7194927,4.84049883 C12.883975,4.71263661 12.9205266,4.4934442 12.792596,4.3290499 C12.7377685,4.25598578 12.6281137,4.20118768 12.5367347,4.20118768 C12.4453556,4.20118768 12.3539766,4.23771974 12.2808734,4.29251784 L12.2625976,4.31078389 C12.2443217,4.3290499 12.2260459,4.34731594 12.2077701,4.34731594 C12.1529427,4.40211404 12.0981153,4.45691215 12.0615637,4.51171025 C12.0432879,4.5482423 12.0067363,4.56650835 11.9884605,4.58477436 C11.842254,4.73090266 11.6960476,4.87703092 11.5315653,4.98662712 C11.4950137,5.00489313 11.4584621,5.02315918 11.4219105,5.02315918 C11.4036346,5.02315918 11.367083,5.02315918 11.3488072,5.00489313 L11.2026008,5.11448934 C11.0563943,4.96836108 10.8919121,4.82223282 10.7457056,4.67610456 C10.0695008,4.14638958 9.22881369,3.81760097 8.36985075,3.72627081 L8.35157495,3.58014255 L8.33329914,3.5618765 C8.27847172,3.52534444 8.26019592,3.47054634 8.24192011,3.41574824 C8.24192011,3.21482188 8.24192011,3.01389551 8.27847172,2.79470311 L8.27847172,2.77643706 C8.27847172,2.739905 8.29674753,2.70337295 8.29674753,2.66684085 C8.31502333,2.59377674 8.31502333,2.52071261 8.33329914,2.44764847 L8.33329914,2.33805227 C8.35157495,2.15539194 8.2053685,1.9727316 8.02261044,1.9727316 C7.91295561,1.9727316 7.80330077,2.00926367 7.73019755,2.08232781 C7.65709433,2.15539194 7.62054272,2.2467221 7.62054272,2.33805227 L7.62054272,2.42938244 C7.62054272,2.50244657 7.63881852,2.5755107 7.65709433,2.64857485 C7.67537014,2.6851069 7.67537014,2.72163896 7.67537014,2.75817105 L7.67537014,2.77643706 C7.71192175,2.97736342 7.71192175,3.17828982 7.71192175,3.39748219 C7.69364594,3.4522803 7.67537014,3.5070784 7.62054272,3.54361049 L7.60226691,3.5618765 L7.58399111,3.70800476 C7.38295721,3.72627081 7.18192334,3.76280286 6.96261368,3.79933496 C6.10365077,3.98199527 5.31779109,4.4386461 4.71468946,5.07795728 L4.60503463,5.00489313 L4.58675882,5.00489313 C4.56848302,5.00489313 4.55020721,5.02315918 4.5136556,5.02315918 C4.47710399,5.02315918 4.42227657,5.00489313 4.40400077,4.98662712 C4.23951848,4.85876487 4.09331203,4.71263661 3.94710559,4.56650835 C3.92882978,4.52997626 3.89227817,4.51171025 3.87400237,4.4934442 C3.81917495,4.4386461 3.78262334,4.383848 3.72779592,4.3290499 C3.70952011,4.31078389 3.69124431,4.31078389 3.6729685,4.29251784 C3.6546927,4.27425179 3.6546927,4.27425179 3.6546927,4.27425179 C3.58158947,4.21945369 3.49021041,4.18292164 3.39883138,4.18292164 C3.28917655,4.18292164 3.19779752,4.21945369 3.12469429,4.31078389 C3.01503946,4.47517819 3.05159107,4.69437057 3.19779752,4.82223282 C3.21607332,4.82223282 3.21607332,4.84049883 3.21607332,4.84049883 C3.21607332,4.84049883 3.25262493,4.87703092 3.27090074,4.87703092 C3.32572816,4.91356297 3.39883138,4.95009503 3.4719346,4.98662712 C3.50848625,5.00489313 3.54503786,5.02315918 3.58158947,5.04142523 C3.76434753,5.15102139 3.92882978,5.2606176 4.09331203,5.38847985 C4.12986364,5.4250119 4.16641526,5.49807605 4.14813945,5.55287416 L4.14813945,5.57114016 L4.25779428,5.68073637 C4.23951848,5.71726846 4.22124267,5.73553447 4.20296687,5.77206653 C3.63641689,6.66710217 3.41710719,7.72653213 3.58158947,8.76769603 L3.43538299,8.80422809 C3.43538299,8.82249413 3.41710719,8.82249413 3.41710719,8.82249413 C3.39883138,8.8772922 3.34400396,8.91382429 3.28917655,8.95035635 C3.08814268,9.00515445 2.88710882,9.04168651 2.66779913,9.05995255 L2.64952333,9.05995255 C2.61297171,9.05995255 2.5764201,9.05995255 2.53986849,9.0782186 C2.46676526,9.0782186 2.39366203,9.09648461 2.32055881,9.09648461 C2.302283,9.09648461 2.2840072,9.11475066 2.24745558,9.11475066 C2.22917977,9.11475066 2.22917977,9.11475066 2.21090397,9.1330167 C2.0098701,9.16954876 1.88193945,9.35220907 1.91849107,9.55313544 C1.95504268,9.71752974 2.11952494,9.82712595 2.2840072,9.8088599 C2.32055881,9.8088599 2.33883462,9.8088599 2.37538623,9.79059389 C2.39366203,9.79059389 2.39366203,9.79059389 2.39366203,9.77232785 C2.39366203,9.75406184 2.43021365,9.75406184 2.46676526,9.75406184 C2.53986849,9.73579579 2.61297171,9.69926373 2.66779913,9.68099769 C2.70435075,9.66273164 2.74090236,9.64446563 2.77745397,9.64446563 L2.79572979,9.64446563 C2.97848785,9.57140148 3.17952171,9.51660338 3.38055557,9.48007133 L3.39883138,9.48007133 C3.4536588,9.48007133 3.50848625,9.49833733 3.54503786,9.53486943 C3.56331367,9.53486943 3.56331367,9.55313544 3.56331367,9.55313544 L3.72779592,9.53486943 C4.00193301,10.375107 4.5136556,11.1240143 5.22641206,11.6719953 C5.39089431,11.7998576 5.53710076,11.9094538 5.71985881,12.0007839 L5.64675559,12.1469122 C5.64675559,12.1651782 5.6650314,12.1651782 5.6650314,12.1651782 C5.70158301,12.2199763 5.70158301,12.2930404 5.6833072,12.3478385 C5.61020398,12.5304989 5.50054915,12.7131592 5.39089431,12.8775535 L5.39089431,12.8958196 C5.37261851,12.9323516 5.3543427,12.9506177 5.31779109,12.9871497 C5.28123948,13.0236818 5.24468787,13.0967459 5.18986045,13.1698101 C5.17158464,13.1880761 5.17158464,13.2063421 5.15330884,13.2246081 C5.15330884,13.2246081 5.15330884,13.2428742 5.13503303,13.2428742 C5.04365397,13.4255345 5.11675719,13.6447269 5.28123948,13.7360571 C5.31779109,13.7543231 5.37261851,13.7725892 5.42744592,13.7725892 C5.57365237,13.7725892 5.70158301,13.681259 5.77468623,13.5533968 C5.77468623,13.5533968 5.77468623,13.5351307 5.79296204,13.5351307 C5.79296204,13.5168647 5.81123784,13.4985987 5.82951365,13.4803326 C5.84778945,13.4072685 5.88434107,13.3524704 5.90261687,13.2794062 L5.93916852,13.1698101 C5.99399594,12.9688837 6.08537497,12.7862234 6.17675399,12.603563 C6.21330561,12.5487649 6.26813302,12.5122328 6.32296044,12.4939668 C6.34123625,12.4939668 6.34123625,12.4939668 6.34123625,12.4757008 L6.41433947,12.3295725 C6.92606206,12.5304989 7.45606043,12.6218291 8.00433464,12.6218291 C8.33329914,12.6218291 8.66226368,12.585297 8.99122818,12.5122328 C9.19226208,12.4757008 9.39329594,12.4026366 9.576054,12.3478385 L9.64915722,12.4757008 C9.66743303,12.4757008 9.66743303,12.4757008 9.66743303,12.4939668 C9.72226045,12.5122328 9.77708786,12.5487649 9.81363948,12.603563 C9.9050185,12.7862234 9.97812173,12.9688837 10.051225,13.151544 L10.051225,13.1698101 L10.0877766,13.2794062 C10.1060524,13.3524704 10.1243282,13.4255345 10.1608798,13.4803326 C10.1791556,13.4985987 10.1791556,13.5168647 10.1974314,13.5351307 C10.1974314,13.5351307 10.1974314,13.5533968 10.2157072,13.5533968 C10.2888105,13.681259 10.4167411,13.7725892 10.5629475,13.7725892 C10.617775,13.7725892 10.6543266,13.7543231 10.709154,13.7360571 C10.7822572,13.699525 10.8553605,13.6264609 10.8736363,13.5351307 C10.8919121,13.4438006 10.8919121,13.3342043 10.8553605,13.2428742 C10.8553605,13.2246081 10.8370847,13.2246081 10.8370847,13.2246081 C10.8370847,13.2063421 10.8188089,13.1880761 10.800533,13.1698101 C10.7639814,13.0967459 10.7274298,13.0419478 10.6726024,12.9871497 C10.6543266,12.9506177 10.6360508,12.9323516 10.5994992,12.8958196 L10.5994992,12.8775535 C10.4715685,12.7131592 10.3801895,12.5304989 10.3070863,12.3478385 C10.2888105,12.2930404 10.2888105,12.2199763 10.3253621,12.1651782 C10.3253621,12.1469122 10.3436379,12.1469122 10.3436379,12.1469122 L10.2888105,12.0007839 C11.2391524,11.4345369 11.933633,10.5577673 12.2808734,9.51660338 L12.4270798,9.53486943 C12.4453556,9.53486943 12.4453556,9.51660338 12.4453556,9.51660338 C12.4819073,9.48007133 12.5367347,9.46180528 12.5915621,9.46180528 L12.6098379,9.46180528 C12.8108718,9.49833733 13.0119056,9.55313544 13.1946637,9.62619959 L13.2129395,9.62619959 C13.2494911,9.64446563 13.2860427,9.66273164 13.3225944,9.66273164 C13.3956976,9.69926373 13.450525,9.71752974 13.5236282,9.73579579 C13.541904,9.73579579 13.5601798,9.75406184 13.5967314,9.75406184 C13.6150072,9.75406184 13.6150072,9.75406184 13.6332831,9.77232785 C13.6698347,9.79059389 13.6881105,9.79059389 13.7246621,9.79059389 C13.8891443,9.79059389 14.0353508,9.68099769 14.0901782,9.53486943 C14.0353508,9.35220907 13.9074201,9.20608081 13.7246621,9.16954876 Z M8.46122982,8.60330173 L7.96778303,8.84076014 L7.47433624,8.60330173 L7.32812979,8.07358675 L7.67537014,7.63520193 L8.24192011,7.63520193 L8.58916046,8.07358675 L8.46122982,8.60330173 Z M11.4401863,7.41600956 C11.5315653,7.79959624 11.5498411,8.18318295 11.5132895,8.56676963 L9.77708786,8.07358675 C9.61260561,8.03705469 9.52122658,7.87266039 9.5577782,7.70826608 C9.576054,7.65346798 9.59432981,7.61693592 9.63088142,7.58040387 L11.0015669,6.3383136 C11.2026008,6.66710217 11.3488072,7.03242284 11.4401863,7.41600956 Z M10.4532927,5.66247036 L8.97295238,6.72190028 C8.84502174,6.79496442 8.66226368,6.77669838 8.57088465,6.64883616 C8.53433304,6.61230407 8.51605723,6.57577202 8.51605723,6.52097391 L8.4064024,4.67610456 C9.17398624,4.76743471 9.9050185,5.11448934 10.4532927,5.66247036 Z M7.14537173,4.73090266 L7.51088785,4.65783851 L7.40123301,6.48444186 C7.40123301,6.64883616 7.25502657,6.77669838 7.09054432,6.77669838 C7.0357169,6.77669838 6.99916529,6.75843233 6.94433787,6.74016632 L5.46399753,5.66247036 C5.92089268,5.2058195 6.5057185,4.87703092 7.14537173,4.73090266 Z M4.91572333,6.3383136 L6.26813302,7.54387177 C6.39606366,7.65346798 6.41433947,7.83612833 6.30468463,7.96399054 C6.26813302,8.01878865 6.23158141,8.03705469 6.15847819,8.0553207 L4.40400077,8.56676963 C4.33089754,7.79959624 4.5136556,7.0141568 4.91572333,6.3383136 Z M4.60503463,9.42527322 L6.41433947,9.11475066 C6.56054591,9.11475066 6.70675236,9.20608081 6.72502816,9.35220907 C6.74330397,9.40700718 6.74330397,9.48007133 6.70675236,9.53486943 L6.01227174,11.2153445 C5.37261851,10.7952257 4.86089591,10.1559146 4.60503463,9.42527322 Z M8.75364271,11.6902614 C8.49778143,11.7450595 8.22364431,11.7815915 7.94950722,11.7815915 C7.5657153,11.7815915 7.16364754,11.7085274 6.79813142,11.5989312 L7.69364594,9.97325421 C7.78502497,9.863658 7.93123141,9.82712595 8.05916205,9.9001901 C8.11398947,9.93672215 8.15054108,9.97325421 8.2053685,10.0280523 L9.08260721,11.6171972 C8.99122818,11.6354632 8.88157335,11.6537293 8.75364271,11.6902614 Z M10.9832911,10.1011165 C10.709154,10.5395012 10.3253621,10.923088 9.8867427,11.1970785 L9.17398624,9.49833733 C9.13743463,9.35220907 9.19226208,9.20608081 9.33846853,9.1330167 C9.39329594,9.11475066 9.44812336,9.09648461 9.50295078,9.09648461 L11.3305314,9.40700718 C11.2391524,9.66273164 11.1294976,9.9001901 10.9832911,10.1011165 Z" id="Combined-Shape"></path>
                                    </g>
                                </g>
                            </g>
                            <path d="M2,-1 L238,-1 C239.104569,-1 240,-0.1045695 240,1 L240,141 C240,142.104569 239.104569,143 238,143 L2,143 C0.8954305,143 1.3527075e-16,142.104569 0,141 L0,1 C-1.3527075e-16,-0.1045695 0.8954305,-1 2,-1 Z" id="矩形备份-18" stroke="#E6D2A1" stroke-dasharray="3"></path>
                            <path d="M0,-1 L240,-1 L240,29 L0,29 L0,-1 Z" id="矩形备份-16" stroke="#555F6A" fill="#E6D2A2" opacity="0.1" stroke-dasharray="3"></path>
                            <text id="Public-Cloud" font-family="PingFangSC-Regular, PingFang SC" font-size="12" font-weight="normal" letter-spacing="0.435" fill="#9F6000">
                                <tspan x="82.266" y="19">Public Cloud</tspan>
                            </text>
                        </g>
                        <g id="编组-17备份-2" transform="translate(500.000000, 0.000000)">
                            <g id="编组-16" transform="translate(20.000000, 54.000000)">
                                <rect id="矩形备份-17" fill="#DFE1E3" x="40" y="0" width="120" height="24" rx="12"></rect>
                                <rect id="矩形备份-17" fill="#A6ABB0" x="20" y="12" width="160" height="24" rx="12"></rect>
                                <rect id="矩形备份-4" fill="#555F6A" x="0" y="24" width="200" height="24" rx="12"></rect>
                                <g id="编组备份-2" transform="translate(10.000000, 28.000000)">
                                    <g id="编组-23">
                                        <path d="M14.6019008,4.43401429 L15.9908621,10.4070072 C16.0274137,10.7175297 15.9543105,11.0280523 15.7715524,11.2837768 L11.9153572,16.0512115 C11.7143234,16.325202 11.4036346,16.4713303 11.0746701,16.4347982 L4.91572333,16.4347982 C4.60503463,16.4165322 4.2943459,16.2704039 4.07503623,16.0512115 L0.218841059,11.2837768 C0.0360829912,11.0280523 -0.0370202315,10.7175297 0.0178071856,10.4070072 L1.40676848,4.39748219 C1.47987171,4.08695963 1.68090558,3.84950121 1.95504268,3.72163896 L7.52916365,1.03653207 C7.67537014,1 7.83985239,1 7.98605883,1 C8.13226528,1 8.29674753,1.01826603 8.44295401,1.09133017 L14.017075,3.75817105 C14.2912121,3.90429931 14.5105218,4.14175773 14.6019008,4.43401429 Z M13.7246621,10.1695488 C13.7063863,10.1695488 13.7063863,10.1695488 13.7063863,10.1512827 C13.7063863,10.1330167 13.6515589,10.1330167 13.6332831,10.1330167 C13.5601798,10.1147507 13.4870766,10.1147507 13.4139734,10.1147507 C13.3774218,10.1147507 13.3408702,10.1147507 13.3043185,10.0964846 L13.2860427,10.0964846 C13.0850088,10.0782186 12.8656992,10.0416865 12.6646653,9.9868884 C12.6098379,9.9686224 12.5550105,9.91382429 12.5367347,9.85902619 C12.5367347,9.84076014 12.5184589,9.84076014 12.5184589,9.84076014 L12.3722524,9.80422809 C12.4453556,9.27451311 12.408804,8.72653213 12.2991492,8.19681715 C12.1712185,7.66710217 11.9519089,7.15565324 11.659496,6.69900242 L11.7691508,6.58940621 L11.7691508,6.57114016 C11.7691508,6.51634206 11.7874266,6.44327795 11.8239782,6.40674589 C11.9884605,6.27888364 12.1529427,6.15102139 12.3357008,6.05969123 C12.3722524,6.04142523 12.408804,6.02315918 12.4453556,6.00489313 C12.5184589,5.96836108 12.5732863,5.93182902 12.6463895,5.89529693 C12.6646653,5.87703092 12.6829411,5.87703092 12.7012169,5.85876487 C12.7194927,5.84049883 12.7194927,5.84049883 12.7194927,5.84049883 C12.883975,5.71263661 12.9205266,5.4934442 12.792596,5.3290499 C12.7377685,5.25598578 12.6281137,5.20118768 12.5367347,5.20118768 C12.4453556,5.20118768 12.3539766,5.23771974 12.2808734,5.29251784 L12.2625976,5.31078389 C12.2443217,5.3290499 12.2260459,5.34731594 12.2077701,5.34731594 C12.1529427,5.40211404 12.0981153,5.45691215 12.0615637,5.51171025 C12.0432879,5.5482423 12.0067363,5.56650835 11.9884605,5.58477436 C11.842254,5.73090266 11.6960476,5.87703092 11.5315653,5.98662712 C11.4950137,6.00489313 11.4584621,6.02315918 11.4219105,6.02315918 C11.4036346,6.02315918 11.367083,6.02315918 11.3488072,6.00489313 L11.2026008,6.11448934 C11.0563943,5.96836108 10.8919121,5.82223282 10.7457056,5.67610456 C10.0695008,5.14638958 9.22881369,4.81760097 8.36985075,4.72627081 L8.35157495,4.58014255 L8.33329914,4.5618765 C8.27847172,4.52534444 8.26019592,4.47054634 8.24192011,4.41574824 C8.24192011,4.21482188 8.24192011,4.01389551 8.27847172,3.79470311 L8.27847172,3.77643706 C8.27847172,3.739905 8.29674753,3.70337295 8.29674753,3.66684085 C8.31502333,3.59377674 8.31502333,3.52071261 8.33329914,3.44764847 L8.33329914,3.33805227 C8.35157495,3.15539194 8.2053685,2.9727316 8.02261044,2.9727316 C7.91295561,2.9727316 7.80330077,3.00926367 7.73019755,3.08232781 C7.65709433,3.15539194 7.62054272,3.2467221 7.62054272,3.33805227 L7.62054272,3.42938244 C7.62054272,3.50244657 7.63881852,3.5755107 7.65709433,3.64857485 C7.67537014,3.6851069 7.67537014,3.72163896 7.67537014,3.75817105 L7.67537014,3.77643706 C7.71192175,3.97736342 7.71192175,4.17828982 7.71192175,4.39748219 C7.69364594,4.4522803 7.67537014,4.5070784 7.62054272,4.54361049 L7.60226691,4.5618765 L7.58399111,4.70800476 C7.38295721,4.72627081 7.18192334,4.76280286 6.96261368,4.79933496 C6.10365077,4.98199527 5.31779109,5.4386461 4.71468946,6.07795728 L4.60503463,6.00489313 L4.58675882,6.00489313 C4.56848302,6.00489313 4.55020721,6.02315918 4.5136556,6.02315918 C4.47710399,6.02315918 4.42227657,6.00489313 4.40400077,5.98662712 C4.23951848,5.85876487 4.09331203,5.71263661 3.94710559,5.56650835 C3.92882978,5.52997626 3.89227817,5.51171025 3.87400237,5.4934442 C3.81917495,5.4386461 3.78262334,5.383848 3.72779592,5.3290499 C3.70952011,5.31078389 3.69124431,5.31078389 3.6729685,5.29251784 C3.6546927,5.27425179 3.6546927,5.27425179 3.6546927,5.27425179 C3.58158947,5.21945369 3.49021041,5.18292164 3.39883138,5.18292164 C3.28917655,5.18292164 3.19779752,5.21945369 3.12469429,5.31078389 C3.01503946,5.47517819 3.05159107,5.69437057 3.19779752,5.82223282 C3.21607332,5.82223282 3.21607332,5.84049883 3.21607332,5.84049883 C3.21607332,5.84049883 3.25262493,5.87703092 3.27090074,5.87703092 C3.32572816,5.91356297 3.39883138,5.95009503 3.4719346,5.98662712 C3.50848625,6.00489313 3.54503786,6.02315918 3.58158947,6.04142523 C3.76434753,6.15102139 3.92882978,6.2606176 4.09331203,6.38847985 C4.12986364,6.4250119 4.16641526,6.49807605 4.14813945,6.55287416 L4.14813945,6.57114016 L4.25779428,6.68073637 C4.23951848,6.71726846 4.22124267,6.73553447 4.20296687,6.77206653 C3.63641689,7.66710217 3.41710719,8.72653213 3.58158947,9.76769603 L3.43538299,9.80422809 C3.43538299,9.82249413 3.41710719,9.82249413 3.41710719,9.82249413 C3.39883138,9.8772922 3.34400396,9.91382429 3.28917655,9.95035635 C3.08814268,10.0051545 2.88710882,10.0416865 2.66779913,10.0599526 L2.64952333,10.0599526 C2.61297171,10.0599526 2.5764201,10.0599526 2.53986849,10.0782186 C2.46676526,10.0782186 2.39366203,10.0964846 2.32055881,10.0964846 C2.302283,10.0964846 2.2840072,10.1147507 2.24745558,10.1147507 C2.22917977,10.1147507 2.22917977,10.1147507 2.21090397,10.1330167 C2.0098701,10.1695488 1.88193945,10.3522091 1.91849107,10.5531354 C1.95504268,10.7175297 2.11952494,10.8271259 2.2840072,10.8088599 C2.32055881,10.8088599 2.33883462,10.8088599 2.37538623,10.7905939 C2.39366203,10.7905939 2.39366203,10.7905939 2.39366203,10.7723278 C2.39366203,10.7540618 2.43021365,10.7540618 2.46676526,10.7540618 C2.53986849,10.7357958 2.61297171,10.6992637 2.66779913,10.6809977 C2.70435075,10.6627316 2.74090236,10.6444656 2.77745397,10.6444656 L2.79572979,10.6444656 C2.97848785,10.5714015 3.17952171,10.5166034 3.38055557,10.4800713 L3.39883138,10.4800713 C3.4536588,10.4800713 3.50848625,10.4983373 3.54503786,10.5348694 C3.56331367,10.5348694 3.56331367,10.5531354 3.56331367,10.5531354 L3.72779592,10.5348694 C4.00193301,11.375107 4.5136556,12.1240143 5.22641206,12.6719953 C5.39089431,12.7998576 5.53710076,12.9094538 5.71985881,13.0007839 L5.64675559,13.1469122 C5.64675559,13.1651782 5.6650314,13.1651782 5.6650314,13.1651782 C5.70158301,13.2199763 5.70158301,13.2930404 5.6833072,13.3478385 C5.61020398,13.5304989 5.50054915,13.7131592 5.39089431,13.8775535 L5.39089431,13.8958196 C5.37261851,13.9323516 5.3543427,13.9506177 5.31779109,13.9871497 C5.28123948,14.0236818 5.24468787,14.0967459 5.18986045,14.1698101 C5.17158464,14.1880761 5.17158464,14.2063421 5.15330884,14.2246081 C5.15330884,14.2246081 5.15330884,14.2428742 5.13503303,14.2428742 C5.04365397,14.4255345 5.11675719,14.6447269 5.28123948,14.7360571 C5.31779109,14.7543231 5.37261851,14.7725892 5.42744592,14.7725892 C5.57365237,14.7725892 5.70158301,14.681259 5.77468623,14.5533968 C5.77468623,14.5533968 5.77468623,14.5351307 5.79296204,14.5351307 C5.79296204,14.5168647 5.81123784,14.4985987 5.82951365,14.4803326 C5.84778945,14.4072685 5.88434107,14.3524704 5.90261687,14.2794062 L5.93916852,14.1698101 C5.99399594,13.9688837 6.08537497,13.7862234 6.17675399,13.603563 C6.21330561,13.5487649 6.26813302,13.5122328 6.32296044,13.4939668 C6.34123625,13.4939668 6.34123625,13.4939668 6.34123625,13.4757008 L6.41433947,13.3295725 C6.92606206,13.5304989 7.45606043,13.6218291 8.00433464,13.6218291 C8.33329914,13.6218291 8.66226368,13.585297 8.99122818,13.5122328 C9.19226208,13.4757008 9.39329594,13.4026366 9.576054,13.3478385 L9.64915722,13.4757008 C9.66743303,13.4757008 9.66743303,13.4757008 9.66743303,13.4939668 C9.72226045,13.5122328 9.77708786,13.5487649 9.81363948,13.603563 C9.9050185,13.7862234 9.97812173,13.9688837 10.051225,14.151544 L10.051225,14.1698101 L10.0877766,14.2794062 C10.1060524,14.3524704 10.1243282,14.4255345 10.1608798,14.4803326 C10.1791556,14.4985987 10.1791556,14.5168647 10.1974314,14.5351307 C10.1974314,14.5351307 10.1974314,14.5533968 10.2157072,14.5533968 C10.2888105,14.681259 10.4167411,14.7725892 10.5629475,14.7725892 C10.617775,14.7725892 10.6543266,14.7543231 10.709154,14.7360571 C10.7822572,14.699525 10.8553605,14.6264609 10.8736363,14.5351307 C10.8919121,14.4438006 10.8919121,14.3342043 10.8553605,14.2428742 C10.8553605,14.2246081 10.8370847,14.2246081 10.8370847,14.2246081 C10.8370847,14.2063421 10.8188089,14.1880761 10.800533,14.1698101 C10.7639814,14.0967459 10.7274298,14.0419478 10.6726024,13.9871497 C10.6543266,13.9506177 10.6360508,13.9323516 10.5994992,13.8958196 L10.5994992,13.8775535 C10.4715685,13.7131592 10.3801895,13.5304989 10.3070863,13.3478385 C10.2888105,13.2930404 10.2888105,13.2199763 10.3253621,13.1651782 C10.3253621,13.1469122 10.3436379,13.1469122 10.3436379,13.1469122 L10.2888105,13.0007839 C11.2391524,12.4345369 11.933633,11.5577673 12.2808734,10.5166034 L12.4270798,10.5348694 C12.4453556,10.5348694 12.4453556,10.5166034 12.4453556,10.5166034 C12.4819073,10.4800713 12.5367347,10.4618053 12.5915621,10.4618053 L12.6098379,10.4618053 C12.8108718,10.4983373 13.0119056,10.5531354 13.1946637,10.6261996 L13.2129395,10.6261996 C13.2494911,10.6444656 13.2860427,10.6627316 13.3225944,10.6627316 C13.3956976,10.6992637 13.450525,10.7175297 13.5236282,10.7357958 C13.541904,10.7357958 13.5601798,10.7540618 13.5967314,10.7540618 C13.6150072,10.7540618 13.6150072,10.7540618 13.6332831,10.7723278 C13.6698347,10.7905939 13.6881105,10.7905939 13.7246621,10.7905939 C13.8891443,10.7905939 14.0353508,10.6809977 14.0901782,10.5348694 C14.0353508,10.3522091 13.9074201,10.2060808 13.7246621,10.1695488 Z M8.46122982,9.60330173 L7.96778303,9.84076014 L7.47433624,9.60330173 L7.32812979,9.07358675 L7.67537014,8.63520193 L8.24192011,8.63520193 L8.58916046,9.07358675 L8.46122982,9.60330173 Z M11.4401863,8.41600956 C11.5315653,8.79959624 11.5498411,9.18318295 11.5132895,9.56676963 L9.77708786,9.07358675 C9.61260561,9.03705469 9.52122658,8.87266039 9.5577782,8.70826608 C9.576054,8.65346798 9.59432981,8.61693592 9.63088142,8.58040387 L11.0015669,7.3383136 C11.2026008,7.66710217 11.3488072,8.03242284 11.4401863,8.41600956 Z M10.4532927,6.66247036 L8.97295238,7.72190028 C8.84502174,7.79496442 8.66226368,7.77669838 8.57088465,7.64883616 C8.53433304,7.61230407 8.51605723,7.57577202 8.51605723,7.52097391 L8.4064024,5.67610456 C9.17398624,5.76743471 9.9050185,6.11448934 10.4532927,6.66247036 Z M7.14537173,5.73090266 L7.51088785,5.65783851 L7.40123301,7.48444186 C7.40123301,7.64883616 7.25502657,7.77669838 7.09054432,7.77669838 C7.0357169,7.77669838 6.99916529,7.75843233 6.94433787,7.74016632 L5.46399753,6.66247036 C5.92089268,6.2058195 6.5057185,5.87703092 7.14537173,5.73090266 Z M4.91572333,7.3383136 L6.26813302,8.54387177 C6.39606366,8.65346798 6.41433947,8.83612833 6.30468463,8.96399054 C6.26813302,9.01878865 6.23158141,9.03705469 6.15847819,9.0553207 L4.40400077,9.56676963 C4.33089754,8.79959624 4.5136556,8.0141568 4.91572333,7.3383136 Z M4.60503463,10.4252732 L6.41433947,10.1147507 C6.56054591,10.1147507 6.70675236,10.2060808 6.72502816,10.3522091 C6.74330397,10.4070072 6.74330397,10.4800713 6.70675236,10.5348694 L6.01227174,12.2153445 C5.37261851,11.7952257 4.86089591,11.1559146 4.60503463,10.4252732 Z M8.75364271,12.6902614 C8.49778143,12.7450595 8.22364431,12.7815915 7.94950722,12.7815915 C7.5657153,12.7815915 7.16364754,12.7085274 6.79813142,12.5989312 L7.69364594,10.9732542 C7.78502497,10.863658 7.93123141,10.8271259 8.05916205,10.9001901 C8.11398947,10.9367222 8.15054108,10.9732542 8.2053685,11.0280523 L9.08260721,12.6171972 C8.99122818,12.6354632 8.88157335,12.6537293 8.75364271,12.6902614 Z M10.9832911,11.1011165 C10.709154,11.5395012 10.3253621,11.923088 9.8867427,12.1970785 L9.17398624,10.4983373 C9.13743463,10.3522091 9.19226208,10.2060808 9.33846853,10.1330167 C9.39329594,10.1147507 9.44812336,10.0964846 9.50295078,10.0964846 L11.3305314,10.4070072 C11.2391524,10.6627316 11.1294976,10.9001901 10.9832911,11.1011165 Z" id="Combined-Shape" fill="#F7F8F8" fill-rule="nonzero"></path>
                                        <text id="Cluster-(KubeEdge-Ag" font-family="PingFangSC-Regular, PingFang SC" font-size="12" font-weight="normal" letter-spacing="0.435" fill="#FFFFFF">
                                            <tspan x="24.108" y="13">Cluster (KubeEdge Agent)</tspan>
                                        </text>
                                    </g>
                                </g>
                            </g>
                            <path d="M2,0 L238,0 C239.104569,-2.02906125e-16 240,0.8954305 240,2 L240,142 C240,143.104569 239.104569,144 238,144 L2,144 C0.8954305,144 1.3527075e-16,143.104569 0,142 L0,2 C-1.3527075e-16,0.8954305 0.8954305,2.02906125e-16 2,0 Z" id="矩形备份-18" stroke="#E6D2A1" stroke-dasharray="3"></path>
                            <path d="M0,0 L240,0 L240,30 L0,30 L0,0 Z" id="矩形备份-16" stroke="#555F6A" fill="#E6D2A2" opacity="0.1" stroke-dasharray="3"></path>
                            <text id="Edge-clusters" font-family="PingFangSC-Regular, PingFang SC" font-size="12" font-weight="normal" letter-spacing="0.435" fill="#9F6000">
                                <tspan x="79.1985" y="20">Edge clusters</tspan>
                            </text>
                        </g>
                    </g>
                </g>
            </g>
        </g>
    </g>
</svg>