<?xml version="1.0" encoding="UTF-8"?>
<svg xmlns="http://www.w3.org/2000/svg" xmlns:xlink="http://www.w3.org/1999/xlink" width="246px" height="193px" viewBox="0 0 245 193" version="1.1">
<g id="surface1">
<path style=" stroke:none;fill-rule:nonzero;fill:rgb(0%,0%,0%);fill-opacity:1;" d="M 0 133.050781 L 32.839844 133.050781 C 35.691406 129.628906 38.3125 126.019531 40.691406 122.25 C 40.824219 120.171875 40.914062 118.085938 40.914062 115.972656 C 40.945312 90.410156 30.863281 65.875 12.871094 47.726562 C 17.132812 57.890625 19.324219 68.804688 19.3125 79.828125 C 19.335938 99.289062 12.5 118.136719 0 133.050781 Z M 0 133.050781 "/>
<path style=" stroke:none;fill-rule:nonzero;fill:rgb(0%,0%,0%);fill-opacity:1;" d="M 19.101562 145.90625 L 37.179688 145.90625 C 37.957031 143.0625 38.648438 140.207031 39.191406 137.363281 L 0 137.363281 C 7.246094 137.574219 14.113281 140.644531 19.101562 145.90625 Z M 19.101562 145.90625 "/>
<path style=" stroke:none;fill-rule:nonzero;fill:rgb(0%,0%,0%);fill-opacity:1;" d="M 32.972656 158.097656 C 34.171875 155.164062 35.28125 152.1875 36.226562 149.140625 L 21.722656 149.140625 C 23.621094 151.851562 25.011719 154.886719 25.820312 158.097656 Z M 32.972656 158.097656 "/>
<path style=" stroke:none;fill-rule:nonzero;fill:rgb(0%,0%,0%);fill-opacity:1;" d="M 31.640625 161.332031 L 26.429688 161.332031 C 26.585938 162.492188 26.667969 163.660156 26.675781 164.832031 C 26.6875 167.515625 26.304688 170.1875 25.542969 172.765625 C 27.859375 169.109375 29.898438 165.289062 31.640625 161.332031 Z M 31.640625 161.332031 "/>
<path style=" stroke:none;fill-rule:nonzero;fill:rgb(0%,0%,0%);fill-opacity:1;" d="M 204.097656 133.050781 L 243.488281 133.050781 C 249.03125 101.988281 239.140625 70.167969 216.96875 47.726562 C 228.929688 76.34375 223.96875 109.242188 204.097656 133.050781 Z M 204.097656 133.050781 "/>
<path style=" stroke:none;fill-rule:nonzero;fill:rgb(0%,0%,0%);fill-opacity:1;" d="M 223.222656 145.90625 L 241.546875 145.90625 C 242.3125 143.109375 242.980469 140.25 243.488281 137.363281 L 204.097656 137.363281 C 211.351562 137.574219 218.226562 140.644531 223.222656 145.90625 Z M 223.222656 145.90625 "/>
<path style=" stroke:none;fill-rule:nonzero;fill:rgb(0%,0%,0%);fill-opacity:1;" d="M 237.257812 158.097656 C 238.492188 155.175781 239.636719 152.195312 240.589844 149.140625 L 225.820312 149.140625 C 227.714844 151.855469 229.105469 154.886719 229.917969 158.097656 Z M 237.257812 158.097656 "/>
<path style=" stroke:none;fill-rule:nonzero;fill:rgb(0%,0%,0%);fill-opacity:1;" d="M 235.882812 161.332031 L 230.53125 161.332031 C 230.679688 162.492188 230.757812 163.660156 230.761719 164.832031 C 230.78125 167.515625 230.40625 170.1875 229.652344 172.765625 C 231.988281 169.101562 234.070312 165.28125 235.882812 161.332031 Z M 235.882812 161.332031 "/>
<path style=" stroke:none;fill-rule:nonzero;fill:rgb(0%,0%,0%);fill-opacity:1;" d="M 40.191406 133.050781 L 84.402344 133.050781 C 86.46875 130.5625 88.4375 127.996094 90.308594 125.351562 C 90.800781 120.921875 91.046875 116.472656 91.042969 112.015625 C 91.09375 80.066406 78.507812 49.394531 56.039062 26.691406 C 61.363281 39.40625 64.097656 53.054688 64.078125 66.835938 C 64.113281 91.027344 55.660156 114.460938 40.191406 133.050781 Z M 40.191406 133.050781 "/>
<path style=" stroke:none;fill-rule:nonzero;fill:rgb(0%,0%,0%);fill-opacity:1;" d="M 87.222656 145.90625 C 87.945312 143.074219 88.589844 140.230469 89.109375 137.363281 L 40.246094 137.363281 C 40.15625 137.472656 40.078125 137.261719 40.003906 137.363281 C 47.945312 137.609375 55.554688 140.632812 61.503906 145.90625 Z M 87.222656 145.90625 "/>
<path style=" stroke:none;fill-rule:nonzero;fill:rgb(0%,0%,0%);fill-opacity:1;" d="M 83.515625 158.097656 C 84.625 155.152344 85.546875 152.164062 86.390625 149.140625 L 64.644531 149.140625 C 66.972656 151.824219 68.882812 154.84375 70.308594 158.097656 Z M 83.515625 158.097656 "/>
<path style=" stroke:none;fill-rule:nonzero;fill:rgb(0%,0%,0%);fill-opacity:1;" d="M 78.328125 170.273438 C 79.738281 167.363281 81.082031 164.386719 82.28125 161.332031 L 71.554688 161.332031 C 72.5 164.226562 73.058594 167.234375 73.207031 170.273438 Z M 78.328125 170.273438 "/>
<path style=" stroke:none;fill-rule:nonzero;fill:rgb(0%,0%,0%);fill-opacity:1;" d="M 73.230469 173.507812 C 73.105469 176.359375 72.632812 179.183594 71.820312 181.921875 C 73.550781 179.21875 75.152344 176.363281 76.683594 173.507812 Z M 73.230469 173.507812 "/>
<path style=" stroke:none;fill-rule:nonzero;fill:rgb(0%,0%,0%);fill-opacity:1;" d="M 154.367188 133.050781 L 196.945312 133.050781 C 199.875 129.527344 202.515625 125.777344 204.84375 121.828125 C 205.097656 118.59375 205.253906 115.328125 205.253906 112.015625 C 205.304688 80.066406 192.722656 49.390625 170.25 26.691406 C 185.15625 62.339844 179.035156 103.320312 154.367188 133.050781 Z M 154.367188 133.050781 "/>
<path style=" stroke:none;fill-rule:nonzero;fill:rgb(0%,0%,0%);fill-opacity:1;" d="M 201.386719 145.90625 C 202.109375 143.074219 202.777344 140.21875 203.296875 137.363281 L 154.367188 137.363281 C 154.277344 137.472656 154.199219 137.261719 154.113281 137.363281 C 162.058594 137.609375 169.671875 140.632812 175.625 145.90625 Z M 201.386719 145.90625 "/>
<path style=" stroke:none;fill-rule:nonzero;fill:rgb(0%,0%,0%);fill-opacity:1;" d="M 197.679688 158.097656 C 198.789062 155.152344 199.699219 152.164062 200.554688 149.140625 L 178.855469 149.140625 C 181.191406 151.820312 183.105469 154.839844 184.53125 158.097656 Z M 197.679688 158.097656 "/>
<path style=" stroke:none;fill-rule:nonzero;fill:rgb(0%,0%,0%);fill-opacity:1;" d="M 192.515625 170.273438 C 193.925781 167.363281 195.257812 164.386719 196.457031 161.332031 L 185.761719 161.332031 C 186.710938 164.226562 187.269531 167.234375 187.429688 170.273438 Z M 192.515625 170.273438 "/>
<path style=" stroke:none;fill-rule:nonzero;fill:rgb(0%,0%,0%);fill-opacity:1;" d="M 187.441406 173.507812 C 187.320312 176.359375 186.847656 179.1875 186.03125 181.921875 C 187.761719 179.230469 189.359375 176.363281 190.882812 173.507812 Z M 187.441406 173.507812 "/>
<path style=" stroke:none;fill-rule:nonzero;fill:rgb(0%,0%,0%);fill-opacity:1;" d="M 90.898438 133.050781 L 147.949219 133.050781 C 149.835938 130.761719 151.632812 128.398438 153.335938 125.960938 C 154.152344 119.574219 154.566406 113.136719 154.578125 106.695312 C 154.628906 66.746094 138.882812 28.398438 110.777344 0.0234375 C 117.4375 15.90625 120.859375 32.957031 120.839844 50.179688 C 120.878906 80.460938 110.28125 109.792969 90.898438 133.050781 Z M 90.898438 133.050781 "/>
<path style=" stroke:none;fill-rule:nonzero;fill:rgb(0%,0%,0%);fill-opacity:1;" d="M 150.324219 145.90625 C 151.003906 143.074219 151.625 140.230469 152.144531 137.363281 L 90.898438 137.363281 C 90.820312 137.460938 90.742188 137.261719 90.664062 137.363281 C 99.441406 137.632812 107.921875 140.617188 114.929688 145.90625 Z M 150.324219 145.90625 "/>
<path style=" stroke:none;fill-rule:nonzero;fill:rgb(0%,0%,0%);fill-opacity:1;" d="M 125.980469 158.097656 L 146.835938 158.097656 C 147.804688 155.140625 148.703125 152.164062 149.492188 149.140625 L 118.75 149.140625 C 121.546875 151.792969 123.976562 154.804688 125.980469 158.097656 Z M 125.980469 158.097656 "/>
<path style=" stroke:none;fill-rule:nonzero;fill:rgb(0%,0%,0%);fill-opacity:1;" d="M 142.339844 170.273438 C 143.5625 167.339844 144.714844 164.351562 145.773438 161.332031 L 127.792969 161.332031 C 129.230469 164.179688 130.347656 167.179688 131.125 170.273438 Z M 142.339844 170.273438 "/>
<path style=" stroke:none;fill-rule:nonzero;fill:rgb(0%,0%,0%);fill-opacity:1;" d="M 132.265625 182.464844 L 136.597656 182.464844 C 138.121094 179.542969 139.574219 176.554688 140.929688 173.507812 L 131.777344 173.507812 C 132.167969 175.84375 132.363281 178.207031 132.367188 180.574219 C 132.332031 181.210938 132.289062 181.832031 132.265625 182.464844 Z M 132.265625 182.464844 "/>
<path style=" stroke:none;fill-rule:nonzero;fill:rgb(0%,0%,0%);fill-opacity:1;" d="M 132 185.699219 C 131.714844 188.164062 131.210938 190.597656 130.5 192.976562 C 132.023438 190.621094 133.445312 188.175781 134.820312 185.699219 Z M 132 185.699219 "/>
</g>
</svg>
