<svg version="1.0" xmlns="http://www.w3.org/2000/svg" width="266.667" height="266.667" viewBox="0 0 200 200"><path d="M92 18.1c0 .2 1 3.3 2.1 6.9 4.4 13.8 5.7 33.9 2.9 46.3-3.1 13.6-9.1 27.3-16 36.5l-4 5.2h42l1.7-2.7c3.4-5.2 2.4-31-1.7-45.8-3.2-11.4-9.4-24-16.6-34C98.3 24.8 92 17.3 92 18.1zM54.1 42.5c2.6 7.3 3.4 13.9 3.3 24.6-.3 15-3.8 26.5-12 39.2L41 113l16.1-.2c16-.3 16.2-.3 18.1-2.8 3.1-4.2 2.7-20.5-.8-34.5-2.1-8.3-9.2-22.8-14.7-30.1-7-9.1-8-9.7-5.6-2.9zM136.8 44c2.3 6.6 2.6 9.1 2.6 21 .1 11.5-.3 14.6-2.3 21-2.7 8.8-6.1 15.7-10.7 22.2L123 113h15.3c16.8 0 16.7.1 20-6.5 1.4-2.9 1.6-10.9.3-21.3-1.8-14.7-9.9-32.6-19.9-43.7l-4.5-5 2.6 7.5zM22.6 56.5c2.6 8.6 3.5 19.7 2.1 28.2-1 6.4-4.9 16.3-8.7 22.2l-4 6.1h24l2.6-3.9c2.2-3.4 2.5-4.8 2.3-11.1-.5-16.3-5.9-29.8-17.4-43.5l-2.4-3 1.5 5zM169 55c1.8 3.3 3.6 15 3.4 21.6-.3 11.1-4 22.7-10.4 31.9l-3.1 4.5h14c16 0 15 .6 15.3-10.1.3-16.2-4.4-30.9-14.3-44.2-4.1-5.5-7.1-7.8-4.9-3.7zM17.3 117.5c2.1.7 4.7 2.1 5.8 3.1 1.3 1.1 3.8 1.8 7.8 1.9 6.9.2 8-.2 8.3-3.5l.3-2.5-13-.2c-12-.1-12.7-.1-9.2 1.2zM46.7 117.1c.6.6 1.7 1.1 2.4 1.3.8.1 2.7 1.1 4.3 2.1 2.4 1.6 4.8 2 11.9 2 8.5 0 9-.1 9.8-2.3.5-1.3.7-2.7.4-3.2-.3-.4-7.1-.8-15.1-.8-9.9-.1-14.4.2-13.7.9zM83 116.7c.8.3 4 1.7 7 3.2 5 2.5 6.5 2.7 17.3 2.7 12.2-.1 13.6-.6 13.7-4.7 0-1.5-2.1-1.7-19.7-1.7-10.9 0-19.1.3-18.3.5zM131.6 118.5c2.8 1.3 5.4 2.7 5.7 3.2.3.4 4.6.8 9.7.8 9.4 0 10.9-.7 11-4.7 0-1.5-1.6-1.7-15.7-1.6l-15.8.1 5.1 2.2zM161.8 116.7c.7.3 1.6.2 1.9-.1.4-.3-.2-.6-1.3-.5-1.1 0-1.4.3-.6.6zM165 117.1c0 .5.4.9.9.9.4 0 2.1 1 3.7 2.2 2.2 1.8 4.2 2.3 9.2 2.3 5.9.1 6.5-.1 7.3-2.3.5-1.3.9-2.7.9-3.2 0-.4-4.9-.8-11-.8-6 0-11 .4-11 .9zM29 125c-.8.5-.8 1.5.1 3.3 1.8 4 6.3 3.8 7.8-.3.8-2.6.7-3-.7-3.1-.9 0-2.7-.2-3.9-.3-1.2-.1-2.7 0-3.3.4zM60.3 124.8c-2.4.4-2.3.5 1.7 5.1 2.5 2.7 9.4 1.7 10.9-1.6.7-1.4 1-2.7.8-3-.6-.5-10.5-.9-13.4-.5zM98 125c0 .3 1 1.8 2.3 3.3 2 2.6 2.7 2.8 9.6 2.9 7.7.1 9.1-.6 9.1-4.7 0-1.9-.7-2-10.5-2-5.8 0-10.5.2-10.5.5zM141 124.8c0 .2.8 1.7 1.7 3.3 1.5 2.6 2.3 2.9 6.5 2.9 4.3 0 5-.3 5.9-2.6.5-1.5.7-2.9.4-3.2-.5-.6-14.5-.9-14.5-.4zM175.9 125.1c-.5.3-.4 1.8.3 3.5.9 2.5 1.5 2.9 3.9 2.6 2-.3 3.1-1.2 3.8-3.3.5-1.6.7-2.9.3-3-3.5-.4-7.6-.3-8.3.2zM30.8 136.7c-.5 4 .3 4.2 2 .6 1.5-3.4 1.5-4-.2-4-.9 0-1.6 1.3-1.8 3.4zM63.5 134.7c.3.8.5 2.3.5 3.4 0 3.1 3.7 2.3 5.5-1.1.9-1.7 1.4-3 1.3-3.1-.2 0-2-.2-4.1-.3-3-.2-3.7 0-3.2 1.1zM104.4 134.1c-.2.4.1 1.9.7 3.3 1 2.2 1.9 2.6 5.3 2.6 3.7 0 4.3-.3 5.3-3 .6-1.7.8-3.1.5-3.1-2.8-.5-11.4-.4-11.8.2zM146 136.2c0 5.2 4.8 4.6 6.4-.8.6-1.8.2-2.1-2.9-2.1-3.2 0-3.5.3-3.5 2.9zM178.6 134.2c-1 3.1-1.6 6.8-1.1 6.8.6 0 3.5-5.6 3.5-7 0-1.4-2-1.3-2.4.2zM64.4 143.4c-1 2.5 0 3.8 1.3 1.7.8-1.3.9-2.2.3-2.6-.6-.4-1.3.1-1.6.9zM106.8 145.6c.5 4.3 3.6 4.8 4.7.6.4-1.5.7-2.9.8-3.2.1-.3-1.2-.6-2.8-.7-2.9-.1-3.1.1-2.7 3.3zM147.4 142.8c-.6.4-1.1 1.5-1.1 2.6 0 1.8.1 1.8 1.4 0 1.9-2.7 1.8-4-.3-2.6zM106.5 152.1c-1.1 1.7.1 2.1 1.5.4.8-.9.8-1.5.2-1.5-.6 0-1.4.5-1.7 1.1z"/></svg>